+ filenameToUse=/home/horvathandras/vatic/vatic/public/videouploads/DJI_0006_valtok_homokmegy_20180518_napos_kalaszos_T3.avi
+ filenameNoDot=DJI_0006_valtok_homokmegy_20180518_napos_kalaszos_T3
+ FullUploadPath=/home/horvathandras/vatic/vatic/public/videouploads/DJI_0006_valtok_homokmegy_20180518_napos_kalaszos_T3.avi
+ VideoDataDir=/home/horvathandras/vatic/vatic/videos
+ AvailableObjectTypes='PozitívROI NegatívROI Túrás ~Friss ~1-2Hetes ~Régebbi ~Egyéb1 ~Egyéb2 ~Egyéb3 Rágás ~Friss ~1-2Hetes ~Régebbi ~Egyéb1 ~Egyéb2 ~Egyéb3 Törés ~Friss ~1-2Hetes ~Régebbi ~Egyéb1 ~Egyéb2 ~Egyéb3 Taposás ~Friss ~1-2Hetes ~Régebbi ~Egyéb1 ~Egyéb2 ~Egyéb3 EgészségesNövény Egyéb1 Egyéb2 Egyéb3 Egyéb4 Egyéb5 Bizonytalan Művelőút Gktaposás Vetőhiba Széldöntés Jégkár Belvíz Aszály Erózió EgyszikűGyom KétszikűGyom EgyébNövvédelmiPR'
++ dirname /home/horvathandras/vatic/vatic/vatic_publisher.sh
+ cd /home/horvathandras/vatic/vatic
+ touch /home/horvathandras/vatic/vatic/public/videouploads/DJI_0006_valtok_homokmegy_20180518_napos_kalaszos_T3.avi
+ chmod 744 /home/horvathandras/vatic/vatic/public/videouploads/DJI_0006_valtok_homokmegy_20180518_napos_kalaszos_T3.avi
+ mkdir /home/horvathandras/vatic/vatic/videos/DJI_0006_valtok_homokmegy_20180518_napos_kalaszos_T3
+ turkic extract /home/horvathandras/vatic/vatic/public/videouploads/DJI_0006_valtok_homokmegy_20180518_napos_kalaszos_T3.avi /home/horvathandras/vatic/vatic/videos/DJI_0006_valtok_homokmegy_20180518_napos_kalaszos_T3 --no-resize
ffmpeg version 2.8.14-0ubuntu0.16.04.1 Copyright (c) 2000-2018 the FFmpeg developers
  built with gcc 5.4.0 (Ubuntu 5.4.0-6ubuntu1~16.04.9) 20160609
  configuration: --prefix=/usr --extra-version=0ubuntu0.16.04.1 --build-suffix=-ffmpeg --toolchain=hardened --libdir=/usr/lib/x86_64-linux-gnu --incdir=/usr/include/x86_64-linux-gnu --cc=cc --cxx=g++ --enable-gpl --enable-shared --disable-stripping --disable-decoder=libopenjpeg --disable-decoder=libschroedinger --enable-avresample --enable-avisynth --enable-gnutls --enable-ladspa --enable-libass --enable-libbluray --enable-libbs2b --enable-libcaca --enable-libcdio --enable-libflite --enable-libfontconfig --enable-libfreetype --enable-libfribidi --enable-libgme --enable-libgsm --enable-libmodplug --enable-libmp3lame --enable-libopenjpeg --enable-libopus --enable-libpulse --enable-librtmp --enable-libschroedinger --enable-libshine --enable-libsnappy --enable-libsoxr --enable-libspeex --enable-libssh --enable-libtheora --enable-libtwolame --enable-libvorbis --enable-libvpx --enable-libwavpack --enable-libwebp --enable-libx265 --enable-libxvid --enable-libzvbi --enable-openal --enable-opengl --enable-x11grab --enable-libdc1394 --enable-libiec61883 --enable-libzmq --enable-frei0r --enable-libx264 --enable-libopencv
  libavutil      54. 31.100 / 54. 31.100
  libavcodec     56. 60.100 / 56. 60.100
  libavformat    56. 40.101 / 56. 40.101
  libavdevice    56.  4.100 / 56.  4.100
  libavfilter     5. 40.101 /  5. 40.101
  libavresample   2.  1.  0 /  2.  1.  0
  libswscale      3.  1.101 /  3.  1.101
  libswresample   1.  2.101 /  1.  2.101
  libpostproc    53.  3.100 / 53.  3.100
Input #0, mov,mp4,m4a,3gp,3g2,mj2, from '/home/horvathandras/vatic/vatic/public/videouploads/DJI_0006_valtok_homokmegy_20180518_napos_kalaszos_T3.avi':
  Metadata:
    major_brand     : qt  
    minor_version   : 537986816
    compatible_brands: qt  
    creation_time   : 2018-05-18 10:34:18
    location        : +46.494476+19.143665+31.100
    location-{    : +46.494476+19.143665+31.100
    comment         : DE=None, Mode=P, DSW=0001
  Duration: 00:00:21.39, start: 0.000000, bitrate: 100859 kb/s
    Stream #0:0(eng): Video: h264 (High) (avc1 / 0x31637661), yuv420p(tv, bt709), 4096x2160 [SAR 1:1 DAR 256:135], 100692 kb/s, 59.94 fps, 59.94 tbr, 60k tbn, 119.88 tbc (default)
    Metadata:
      creation_time   : 2018-05-18 10:34:18
      handler_name    : DJI.AVC
      encoder         : AVC encoder
    Stream #0:1(eng): Data: none (priv / 0x76697270), 156 kb/s
    Metadata:
      creation_time   : 2018-05-18 10:34:18
      handler_name    : DJI.Meta
Please use -b:a or -b:v, -b is ambiguous
[swscaler @ 0x1765420] deprecated pixel format used, make sure you did set range correctly
Output #0, image2, to '/tmp/pyvision-ffmpeg-548289007/%d.jpg':
  Metadata:
    major_brand     : qt  
    minor_version   : 537986816
    compatible_brands: qt  
    comment         : DE=None, Mode=P, DSW=0001
    location        : +46.494476+19.143665+31.100
    location-{    : +46.494476+19.143665+31.100
    encoder         : Lavf56.40.101
    Stream #0:0(eng): Video: mjpeg, yuvj420p(pc), 4096x2160 [SAR 1:1 DAR 256:135], q=2-31, 10000 kb/s, 59.94 fps, 59.94 tbn, 59.94 tbc (default)
    Metadata:
      creation_time   : 2018-05-18 10:34:18
      handler_name    : DJI.AVC
      encoder         : Lavc56.60.100 mjpeg
Stream mapping:
  Stream #0:0 -> #0:0 (h264 (native) -> mjpeg (native))
Press [q] to stop, [?] for help
frame=    1 fps=0.0 q=15.5 size=N/A time=00:00:00.01 bitrate=N/A    frame=    5 fps=4.6 q=24.8 size=N/A time=00:00:00.08 bitrate=N/A    frame=   10 fps=5.9 q=24.8 size=N/A time=00:00:00.16 bitrate=N/A    frame=   15 fps=6.6 q=24.8 size=N/A time=00:00:00.25 bitrate=N/A    frame=   20 fps=7.1 q=24.8 size=N/A time=00:00:00.33 bitrate=N/A    frame=   25 fps=7.3 q=24.8 size=N/A time=00:00:00.41 bitrate=N/A    frame=   30 fps=7.5 q=24.8 size=N/A time=00:00:00.50 bitrate=N/A    frame=   35 fps=7.6 q=24.8 size=N/A time=00:00:00.58 bitrate=N/A    frame=   40 fps=7.7 q=24.8 size=N/A time=00:00:00.66 bitrate=N/A    frame=   45 fps=7.8 q=24.8 size=N/A time=00:00:00.75 bitrate=N/A    frame=   50 fps=7.9 q=24.8 size=N/A time=00:00:00.83 bitrate=N/A    frame=   55 fps=8.0 q=24.8 size=N/A time=00:00:00.91 bitrate=N/A    frame=   59 fps=8.0 q=24.8 size=N/A time=00:00:00.98 bitrate=N/A    frame=   64 fps=8.0 q=24.8 size=N/A time=00:00:01.06 bitrate=N/A    frame=   69 fps=8.1 q=24.8 size=N/A time=00:00:01.15 bitrate=N/A    frame=   74 fps=8.1 q=24.8 size=N/A time=00:00:01.23 bitrate=N/A    frame=   79 fps=8.2 q=24.8 size=N/A time=00:00:01.31 bitrate=N/A    frame=   84 fps=8.2 q=24.8 size=N/A time=00:00:01.40 bitrate=N/A    frame=   89 fps=8.2 q=24.8 size=N/A time=00:00:01.48 bitrate=N/A    frame=   94 fps=8.3 q=24.8 size=N/A time=00:00:01.56 bitrate=N/A    frame=   99 fps=8.3 q=24.8 size=N/A time=00:00:01.65 bitrate=N/A    frame=  104 fps=8.3 q=24.8 size=N/A time=00:00:01.73 bitrate=N/A    frame=  109 fps=8.3 q=24.8 size=N/A time=00:00:01.81 bitrate=N/A    frame=  114 fps=8.3 q=24.8 size=N/A time=00:00:01.90 bitrate=N/A    frame=  119 fps=8.4 q=24.8 size=N/A time=00:00:01.98 bitrate=N/A    frame=  124 fps=8.4 q=24.8 size=N/A time=00:00:02.06 bitrate=N/A    frame=  129 fps=8.4 q=24.8 size=N/A time=00:00:02.15 bitrate=N/A    frame=  134 fps=8.4 q=24.8 size=N/A time=00:00:02.23 bitrate=N/A    frame=  139 fps=8.4 q=24.8 size=N/A time=00:00:02.31 bitrate=N/A    frame=  144 fps=8.4 q=24.8 size=N/A time=00:00:02.40 bitrate=N/A    frame=  149 fps=8.4 q=24.8 size=N/A time=00:00:02.48 bitrate=N/A    frame=  154 fps=8.5 q=24.8 size=N/A time=00:00:02.56 bitrate=N/A    frame=  159 fps=8.5 q=24.8 size=N/A time=00:00:02.65 bitrate=N/A    frame=  164 fps=8.5 q=24.8 size=N/A time=00:00:02.73 bitrate=N/A    frame=  169 fps=8.5 q=24.8 size=N/A time=00:00:02.81 bitrate=N/A    frame=  174 fps=8.5 q=24.8 size=N/A time=00:00:02.90 bitrate=N/A    frame=  179 fps=8.5 q=24.8 size=N/A time=00:00:02.98 bitrate=N/A    frame=  184 fps=8.5 q=24.8 size=N/A time=00:00:03.06 bitrate=N/A    frame=  189 fps=8.5 q=24.8 size=N/A time=00:00:03.15 bitrate=N/A    frame=  194 fps=8.5 q=24.8 size=N/A time=00:00:03.23 bitrate=N/A    frame=  199 fps=8.5 q=24.8 size=N/A time=00:00:03.31 bitrate=N/A    frame=  204 fps=8.5 q=24.8 size=N/A time=00:00:03.40 bitrate=N/A    frame=  209 fps=8.5 q=24.8 size=N/A time=00:00:03.48 bitrate=N/A    frame=  214 fps=8.5 q=24.8 size=N/A time=00:00:03.57 bitrate=N/A    frame=  219 fps=8.5 q=24.8 size=N/A time=00:00:03.65 bitrate=N/A    frame=  224 fps=8.5 q=24.8 size=N/A time=00:00:03.73 bitrate=N/A    frame=  229 fps=8.5 q=24.8 size=N/A time=00:00:03.82 bitrate=N/A    frame=  234 fps=8.5 q=24.8 size=N/A time=00:00:03.90 bitrate=N/A    frame=  239 fps=8.5 q=24.8 size=N/A time=00:00:03.98 bitrate=N/A    frame=  244 fps=8.5 q=24.8 size=N/A time=00:00:04.07 bitrate=N/A    frame=  249 fps=8.5 q=24.8 size=N/A time=00:00:04.15 bitrate=N/A    frame=  254 fps=8.6 q=24.8 size=N/A time=00:00:04.23 bitrate=N/A    frame=  259 fps=8.6 q=24.8 size=N/A time=00:00:04.32 bitrate=N/A    frame=  264 fps=8.6 q=24.8 size=N/A time=00:00:04.40 bitrate=N/A    frame=  269 fps=8.6 q=24.8 size=N/A time=00:00:04.48 bitrate=N/A    frame=  274 fps=8.6 q=24.8 size=N/A time=00:00:04.57 bitrate=N/A    frame=  279 fps=8.6 q=24.8 size=N/A time=00:00:04.65 bitrate=N/A    frame=  284 fps=8.6 q=24.8 size=N/A time=00:00:04.73 bitrate=N/A    frame=  289 fps=8.6 q=24.8 size=N/A time=00:00:04.82 bitrate=N/A    frame=  294 fps=8.6 q=24.8 size=N/A time=00:00:04.90 bitrate=N/A    frame=  299 fps=8.6 q=24.8 size=N/A time=00:00:04.98 bitrate=N/A    frame=  304 fps=8.6 q=24.8 size=N/A time=00:00:05.07 bitrate=N/A    frame=  309 fps=8.6 q=24.8 size=N/A time=00:00:05.15 bitrate=N/A    frame=  314 fps=8.6 q=24.8 size=N/A time=00:00:05.23 bitrate=N/A    frame=  319 fps=8.6 q=24.8 size=N/A time=00:00:05.32 bitrate=N/A    frame=  324 fps=8.6 q=24.8 size=N/A time=00:00:05.40 bitrate=N/A    frame=  329 fps=8.6 q=24.8 size=N/A time=00:00:05.48 bitrate=N/A    frame=  334 fps=8.6 q=24.8 size=N/A time=00:00:05.57 bitrate=N/A    frame=  339 fps=8.6 q=24.8 size=N/A time=00:00:05.65 bitrate=N/A    frame=  344 fps=8.6 q=24.8 size=N/A time=00:00:05.73 bitrate=N/A    frame=  349 fps=8.6 q=24.8 size=N/A time=00:00:05.82 bitrate=N/A    frame=  354 fps=8.6 q=24.8 size=N/A time=00:00:05.90 bitrate=N/A    frame=  359 fps=8.6 q=24.8 size=N/A time=00:00:05.98 bitrate=N/A    frame=  364 fps=8.6 q=24.8 size=N/A time=00:00:06.07 bitrate=N/A    frame=  369 fps=8.6 q=24.8 size=N/A time=00:00:06.15 bitrate=N/A    frame=  374 fps=8.6 q=24.8 size=N/A time=00:00:06.23 bitrate=N/A    frame=  379 fps=8.6 q=24.8 size=N/A time=00:00:06.32 bitrate=N/A    frame=  384 fps=8.6 q=24.8 size=N/A time=00:00:06.40 bitrate=N/A    frame=  389 fps=8.6 q=24.8 size=N/A time=00:00:06.48 bitrate=N/A    frame=  394 fps=8.6 q=24.8 size=N/A time=00:00:06.57 bitrate=N/A    frame=  399 fps=8.6 q=24.8 size=N/A time=00:00:06.65 bitrate=N/A    frame=  404 fps=8.6 q=24.8 size=N/A time=00:00:06.74 bitrate=N/A    frame=  409 fps=8.6 q=24.8 size=N/A time=00:00:06.82 bitrate=N/A    frame=  414 fps=8.6 q=24.8 size=N/A time=00:00:06.90 bitrate=N/A    frame=  419 fps=8.6 q=24.8 size=N/A time=00:00:06.99 bitrate=N/A    frame=  424 fps=8.6 q=24.8 size=N/A time=00:00:07.07 bitrate=N/A    frame=  429 fps=8.6 q=24.8 size=N/A time=00:00:07.15 bitrate=N/A    frame=  434 fps=8.7 q=24.8 size=N/A time=00:00:07.24 bitrate=N/A    frame=  439 fps=8.7 q=24.8 size=N/A time=00:00:07.32 bitrate=N/A    frame=  444 fps=8.7 q=24.8 size=N/A time=00:00:07.40 bitrate=N/A    frame=  449 fps=8.7 q=24.8 size=N/A time=00:00:07.49 bitrate=N/A    frame=  454 fps=8.7 q=24.8 size=N/A time=00:00:07.57 bitrate=N/A    frame=  459 fps=8.7 q=24.8 size=N/A time=00:00:07.65 bitrate=N/A    frame=  464 fps=8.7 q=24.8 size=N/A time=00:00:07.74 bitrate=N/A    frame=  469 fps=8.7 q=24.8 size=N/A time=00:00:07.82 bitrate=N/A    frame=  474 fps=8.7 q=24.8 size=N/A time=00:00:07.90 bitrate=N/A    frame=  479 fps=8.7 q=24.8 size=N/A time=00:00:07.99 bitrate=N/A    frame=  484 fps=8.7 q=24.8 size=N/A time=00:00:08.07 bitrate=N/A    frame=  489 fps=8.7 q=24.8 size=N/A time=00:00:08.15 bitrate=N/A    frame=  494 fps=8.7 q=24.8 size=N/A time=00:00:08.24 bitrate=N/A    frame=  499 fps=8.7 q=24.8 size=N/A time=00:00:08.32 bitrate=N/A    frame=  504 fps=8.7 q=24.8 size=N/A time=00:00:08.40 bitrate=N/A    frame=  509 fps=8.7 q=24.8 size=N/A time=00:00:08.49 bitrate=N/A    frame=  514 fps=8.7 q=24.8 size=N/A time=00:00:08.57 bitrate=N/A    frame=  519 fps=8.7 q=24.8 size=N/A time=00:00:08.65 bitrate=N/A    frame=  524 fps=8.7 q=24.8 size=N/A time=00:00:08.74 bitrate=N/A    frame=  529 fps=8.7 q=24.8 size=N/A time=00:00:08.82 bitrate=N/A    frame=  534 fps=8.7 q=24.8 size=N/A time=00:00:08.90 bitrate=N/A    frame=  539 fps=8.7 q=24.8 size=N/A time=00:00:08.99 bitrate=N/A    frame=  544 fps=8.7 q=24.8 size=N/A time=00:00:09.07 bitrate=N/A    frame=  549 fps=8.7 q=24.8 size=N/A time=00:00:09.15 bitrate=N/A    frame=  554 fps=8.7 q=24.8 size=N/A time=00:00:09.24 bitrate=N/A    frame=  559 fps=8.7 q=24.8 size=N/A time=00:00:09.32 bitrate=N/A    frame=  564 fps=8.7 q=24.8 size=N/A time=00:00:09.40 bitrate=N/A    frame=  569 fps=8.7 q=24.8 size=N/A time=00:00:09.49 bitrate=N/A    frame=  574 fps=8.7 q=24.8 size=N/A time=00:00:09.57 bitrate=N/A    frame=  579 fps=8.7 q=24.8 size=N/A time=00:00:09.65 bitrate=N/A    frame=  584 fps=8.7 q=24.8 size=N/A time=00:00:09.74 bitrate=N/A    frame=  589 fps=8.7 q=24.8 size=N/A time=00:00:09.82 bitrate=N/A    frame=  594 fps=8.7 q=24.8 size=N/A time=00:00:09.90 bitrate=N/A    frame=  599 fps=8.7 q=24.8 size=N/A time=00:00:09.99 bitrate=N/A    frame=  604 fps=8.7 q=24.8 size=N/A time=00:00:10.07 bitrate=N/A    frame=  609 fps=8.7 q=24.8 size=N/A time=00:00:10.16 bitrate=N/A    frame=  614 fps=8.7 q=24.8 size=N/A time=00:00:10.24 bitrate=N/A    frame=  619 fps=8.7 q=24.8 size=N/A time=00:00:10.32 bitrate=N/A    frame=  624 fps=8.7 q=24.8 size=N/A time=00:00:10.41 bitrate=N/A    frame=  629 fps=8.7 q=24.8 size=N/A time=00:00:10.49 bitrate=N/A    frame=  634 fps=8.7 q=24.8 size=N/A time=00:00:10.57 bitrate=N/A    frame=  639 fps=8.7 q=24.8 size=N/A time=00:00:10.66 bitrate=N/A    frame=  644 fps=8.7 q=24.8 size=N/A time=00:00:10.74 bitrate=N/A    frame=  649 fps=8.7 q=24.8 size=N/A time=00:00:10.82 bitrate=N/A    frame=  654 fps=8.7 q=24.8 size=N/A time=00:00:10.91 bitrate=N/A    frame=  659 fps=8.7 q=24.8 size=N/A time=00:00:10.99 bitrate=N/A    frame=  664 fps=8.7 q=24.8 size=N/A time=00:00:11.07 bitrate=N/A    frame=  669 fps=8.7 q=24.8 size=N/A time=00:00:11.16 bitrate=N/A    frame=  674 fps=8.7 q=24.8 size=N/A time=00:00:11.24 bitrate=N/A    frame=  679 fps=8.7 q=24.8 size=N/A time=00:00:11.32 bitrate=N/A    frame=  684 fps=8.7 q=24.8 size=N/A time=00:00:11.41 bitrate=N/A    frame=  689 fps=8.7 q=24.8 size=N/A time=00:00:11.49 bitrate=N/A    frame=  694 fps=8.7 q=24.8 size=N/A time=00:00:11.57 bitrate=N/A    frame=  699 fps=8.7 q=24.8 size=N/A time=00:00:11.66 bitrate=N/A    frame=  704 fps=8.7 q=24.8 size=N/A time=00:00:11.74 bitrate=N/A    frame=  709 fps=8.7 q=24.8 size=N/A time=00:00:11.82 bitrate=N/A    frame=  714 fps=8.7 q=24.8 size=N/A time=00:00:11.91 bitrate=N/A    frame=  719 fps=8.7 q=24.8 size=N/A time=00:00:11.99 bitrate=N/A    frame=  724 fps=8.7 q=24.8 size=N/A time=00:00:12.07 bitrate=N/A    frame=  729 fps=8.7 q=24.8 size=N/A time=00:00:12.16 bitrate=N/A    frame=  734 fps=8.7 q=24.8 size=N/A time=00:00:12.24 bitrate=N/A    frame=  739 fps=8.7 q=24.8 size=N/A time=00:00:12.32 bitrate=N/A    frame=  744 fps=8.7 q=24.8 size=N/A time=00:00:12.41 bitrate=N/A    frame=  749 fps=8.7 q=24.8 size=N/A time=00:00:12.49 bitrate=N/A    frame=  754 fps=8.7 q=24.8 size=N/A time=00:00:12.57 bitrate=N/A    frame=  759 fps=8.7 q=24.8 size=N/A time=00:00:12.66 bitrate=N/A    frame=  764 fps=8.7 q=24.8 size=N/A time=00:00:12.74 bitrate=N/A    frame=  769 fps=8.7 q=24.8 size=N/A time=00:00:12.82 bitrate=N/A    frame=  774 fps=8.7 q=24.8 size=N/A time=00:00:12.91 bitrate=N/A    frame=  779 fps=8.7 q=24.8 size=N/A time=00:00:12.99 bitrate=N/A    frame=  784 fps=8.7 q=24.8 size=N/A time=00:00:13.07 bitrate=N/A    frame=  789 fps=8.7 q=24.8 size=N/A time=00:00:13.16 bitrate=N/A    frame=  794 fps=8.7 q=24.8 size=N/A time=00:00:13.24 bitrate=N/A    frame=  799 fps=8.7 q=24.8 size=N/A time=00:00:13.32 bitrate=N/A    frame=  804 fps=8.7 q=24.8 size=N/A time=00:00:13.41 bitrate=N/A    frame=  809 fps=8.7 q=24.8 size=N/A time=00:00:13.49 bitrate=N/A    frame=  814 fps=8.7 q=24.8 size=N/A time=00:00:13.58 bitrate=N/A    frame=  819 fps=8.7 q=24.8 size=N/A time=00:00:13.66 bitrate=N/A    frame=  824 fps=8.7 q=24.8 size=N/A time=00:00:13.74 bitrate=N/A    frame=  829 fps=8.7 q=24.8 size=N/A time=00:00:13.83 bitrate=N/A    frame=  834 fps=8.7 q=24.8 size=N/A time=00:00:13.91 bitrate=N/A    frame=  839 fps=8.7 q=24.8 size=N/A time=00:00:13.99 bitrate=N/A    frame=  844 fps=8.7 q=24.8 size=N/A time=00:00:14.08 bitrate=N/A    frame=  849 fps=8.7 q=24.8 size=N/A time=00:00:14.16 bitrate=N/A    frame=  854 fps=8.7 q=24.8 size=N/A time=00:00:14.24 bitrate=N/A    frame=  859 fps=8.7 q=24.8 size=N/A time=00:00:14.33 bitrate=N/A    frame=  864 fps=8.7 q=24.8 size=N/A time=00:00:14.41 bitrate=N/A    frame=  869 fps=8.7 q=24.8 size=N/A time=00:00:14.49 bitrate=N/A    frame=  874 fps=8.7 q=24.8 size=N/A time=00:00:14.58 bitrate=N/A    frame=  879 fps=8.7 q=24.8 size=N/A time=00:00:14.66 bitrate=N/A    frame=  884 fps=8.7 q=24.8 size=N/A time=00:00:14.74 bitrate=N/A    frame=  889 fps=8.7 q=24.8 size=N/A time=00:00:14.83 bitrate=N/A    frame=  894 fps=8.7 q=24.8 size=N/A time=00:00:14.91 bitrate=N/A    frame=  899 fps=8.7 q=24.8 size=N/A time=00:00:14.99 bitrate=N/A    frame=  904 fps=8.7 q=24.8 size=N/A time=00:00:15.08 bitrate=N/A    frame=  909 fps=8.7 q=24.8 size=N/A time=00:00:15.16 bitrate=N/A    frame=  914 fps=8.7 q=24.8 size=N/A time=00:00:15.24 bitrate=N/A    frame=  919 fps=8.7 q=24.8 size=N/A time=00:00:15.33 bitrate=N/A    frame=  924 fps=8.7 q=24.8 size=N/A time=00:00:15.41 bitrate=N/A    frame=  929 fps=8.7 q=24.8 size=N/A time=00:00:15.49 bitrate=N/A    frame=  934 fps=8.7 q=24.8 size=N/A time=00:00:15.58 bitrate=N/A    frame=  939 fps=8.7 q=24.8 size=N/A time=00:00:15.66 bitrate=N/A    frame=  944 fps=8.7 q=24.8 size=N/A time=00:00:15.74 bitrate=N/A    frame=  949 fps=8.7 q=24.8 size=N/A time=00:00:15.83 bitrate=N/A    frame=  954 fps=8.7 q=24.8 size=N/A time=00:00:15.91 bitrate=N/A    frame=  959 fps=8.7 q=24.8 size=N/A time=00:00:15.99 bitrate=N/A    frame=  964 fps=8.7 q=24.8 size=N/A time=00:00:16.08 bitrate=N/A    frame=  969 fps=8.7 q=24.8 size=N/A time=00:00:16.16 bitrate=N/A    frame=  974 fps=8.7 q=24.8 size=N/A time=00:00:16.24 bitrate=N/A    frame=  979 fps=8.7 q=24.8 size=N/A time=00:00:16.33 bitrate=N/A    frame=  984 fps=8.7 q=24.8 size=N/A time=00:00:16.41 bitrate=N/A    frame=  989 fps=8.7 q=24.8 size=N/A time=00:00:16.49 bitrate=N/A    frame=  994 fps=8.7 q=24.8 size=N/A time=00:00:16.58 bitrate=N/A    frame=  999 fps=8.7 q=24.8 size=N/A time=00:00:16.66 bitrate=N/A    frame= 1004 fps=8.7 q=24.8 size=N/A time=00:00:16.75 bitrate=N/A    frame= 1009 fps=8.7 q=24.8 size=N/A time=00:00:16.83 bitrate=N/A    frame= 1014 fps=8.7 q=24.8 size=N/A time=00:00:16.91 bitrate=N/A    frame= 1019 fps=8.7 q=24.8 size=N/A time=00:00:17.00 bitrate=N/A    frame= 1024 fps=8.7 q=24.8 size=N/A time=00:00:17.08 bitrate=N/A    frame= 1029 fps=8.7 q=24.8 size=N/A time=00:00:17.16 bitrate=N/A    frame= 1034 fps=8.7 q=24.8 size=N/A time=00:00:17.25 bitrate=N/A    frame= 1039 fps=8.7 q=24.8 size=N/A time=00:00:17.33 bitrate=N/A    frame= 1044 fps=8.7 q=24.8 size=N/A time=00:00:17.41 bitrate=N/A    frame= 1049 fps=8.7 q=24.8 size=N/A time=00:00:17.50 bitrate=N/A    frame= 1054 fps=8.7 q=24.8 size=N/A time=00:00:17.58 bitrate=N/A    frame= 1059 fps=8.7 q=24.8 size=N/A time=00:00:17.66 bitrate=N/A    frame= 1064 fps=8.7 q=24.8 size=N/A time=00:00:17.75 bitrate=N/A    frame= 1069 fps=8.7 q=24.8 size=N/A time=00:00:17.83 bitrate=N/A    frame= 1074 fps=8.7 q=24.8 size=N/A time=00:00:17.91 bitrate=N/A    frame= 1079 fps=8.7 q=24.8 size=N/A time=00:00:18.00 bitrate=N/A    frame= 1084 fps=8.7 q=24.8 size=N/A time=00:00:18.08 bitrate=N/A    frame= 1089 fps=8.7 q=24.8 size=N/A time=00:00:18.16 bitrate=N/A    frame= 1094 fps=8.7 q=24.8 size=N/A time=00:00:18.25 bitrate=N/A    frame= 1099 fps=8.7 q=24.8 size=N/A time=00:00:18.33 bitrate=N/A    frame= 1104 fps=8.7 q=24.8 size=N/A time=00:00:18.41 bitrate=N/A    frame= 1109 fps=8.7 q=24.8 size=N/A time=00:00:18.50 bitrate=N/A    frame= 1114 fps=8.7 q=24.8 size=N/A time=00:00:18.58 bitrate=N/A    frame= 1119 fps=8.7 q=24.8 size=N/A time=00:00:18.66 bitrate=N/A    frame= 1124 fps=8.7 q=24.8 size=N/A time=00:00:18.75 bitrate=N/A    frame= 1129 fps=8.7 q=24.8 size=N/A time=00:00:18.83 bitrate=N/A    frame= 1134 fps=8.7 q=24.8 size=N/A time=00:00:18.91 bitrate=N/A    frame= 1139 fps=8.7 q=24.8 size=N/A time=00:00:19.00 bitrate=N/A    frame= 1144 fps=8.7 q=24.8 size=N/A time=00:00:19.08 bitrate=N/A    frame= 1149 fps=8.7 q=24.8 size=N/A time=00:00:19.16 bitrate=N/A    frame= 1154 fps=8.7 q=24.8 size=N/A time=00:00:19.25 bitrate=N/A    frame= 1159 fps=8.7 q=24.8 size=N/A time=00:00:19.33 bitrate=N/A    frame= 1164 fps=8.7 q=24.8 size=N/A time=00:00:19.41 bitrate=N/A    frame= 1169 fps=8.7 q=24.8 size=N/A time=00:00:19.50 bitrate=N/A    frame= 1174 fps=8.7 q=24.8 size=N/A time=00:00:19.58 bitrate=N/A    frame= 1179 fps=8.7 q=24.8 size=N/A time=00:00:19.66 bitrate=N/A    frame= 1184 fps=8.7 q=24.8 size=N/A time=00:00:19.75 bitrate=N/A    frame= 1189 fps=8.7 q=24.8 size=N/A time=00:00:19.83 bitrate=N/A    frame= 1194 fps=8.7 q=24.8 size=N/A time=00:00:19.91 bitrate=N/A    frame= 1198 fps=8.7 q=24.8 size=N/A time=00:00:19.98 bitrate=N/A    frame= 1203 fps=8.7 q=24.8 size=N/A time=00:00:20.07 bitrate=N/A    frame= 1208 fps=8.7 q=24.8 size=N/A time=00:00:20.15 bitrate=N/A    frame= 1213 fps=8.7 q=24.8 size=N/A time=00:00:20.23 bitrate=N/A    frame= 1218 fps=8.7 q=24.8 size=N/A time=00:00:20.32 bitrate=N/A    frame= 1223 fps=8.7 q=24.8 size=N/A time=00:00:20.40 bitrate=N/A    frame= 1228 fps=8.7 q=24.8 size=N/A time=00:00:20.48 bitrate=N/A    frame= 1233 fps=8.7 q=24.8 size=N/A time=00:00:20.57 bitrate=N/A    frame= 1238 fps=8.7 q=24.8 size=N/A time=00:00:20.65 bitrate=N/A    frame= 1243 fps=8.7 q=24.8 size=N/A time=00:00:20.73 bitrate=N/A    frame= 1248 fps=8.7 q=24.8 size=N/A time=00:00:20.82 bitrate=N/A    frame= 1253 fps=8.7 q=24.8 size=N/A time=00:00:20.90 bitrate=N/A    frame= 1258 fps=8.7 q=24.8 size=N/A time=00:00:20.98 bitrate=N/A    frame= 1263 fps=8.7 q=24.8 size=N/A time=00:00:21.07 bitrate=N/A    frame= 1268 fps=8.7 q=24.8 size=N/A time=00:00:21.15 bitrate=N/A    frame= 1273 fps=8.7 q=24.8 size=N/A time=00:00:21.23 bitrate=N/A    frame= 1278 fps=8.7 q=24.8 size=N/A time=00:00:21.32 bitrate=N/A    frame= 1282 fps=8.7 q=24.8 size=N/A time=00:00:21.38 bitrate=N/A    frame= 1282 fps=8.7 q=24.8 Lsize=N/A time=00:00:21.38 bitrate=N/A    
video:927447kB audio:0kB subtitle:0kB other streams:0kB global headers:0kB muxing overhead: unknown
+ turkic load DJI_0006_valtok_homokmegy_20180518_napos_kalaszos_T3 /home/horvathandras/vatic/vatic/videos/DJI_0006_valtok_homokmegy_20180518_napos_kalaszos_T3 $'Pozit\303\255vROI' $'Negat\303\255vROI' $'T\303\272r\303\241s' '~Friss' '~1-2Hetes' '~Régebbi' '~Egyéb1' '~Egyéb2' '~Egyéb3' $'R\303\241g\303\241s' '~Friss' '~1-2Hetes' '~Régebbi' '~Egyéb1' '~Egyéb2' '~Egyéb3' $'T\303\266r\303\251s' '~Friss' '~1-2Hetes' '~Régebbi' '~Egyéb1' '~Egyéb2' '~Egyéb3' $'Tapos\303\241s' '~Friss' '~1-2Hetes' '~Régebbi' '~Egyéb1' '~Egyéb2' '~Egyéb3' $'Eg\303\251szs\303\251gesN\303\266v\303\251ny' $'Egy\303\251b1' $'Egy\303\251b2' $'Egy\303\251b3' $'Egy\303\251b4' $'Egy\303\251b5' Bizonytalan $'M\305\261vel\305\221\303\272t' $'Gktapos\303\241s' $'Vet\305\221hiba' $'Sz\303\251ld\303\266nt\303\251s' $'J\303\251gk\303\241r' $'Belv\303\255z' $'Asz\303\241ly' $'Er\303\263zi\303\263' $'Egyszik\305\261Gyom' $'K\303\251tszik\305\261Gyom' $'Egy\303\251bN\303\266vv\303\251delmiPR' --offline --title '$filenameNoDot Video' --length 1000 --description 'vatic annotation'
+ turkic publish --offline
+ mkdir /home/horvathandras/vatic/vatic/public/videothumbnails/DJI_0006_valtok_homokmegy_20180518_napos_kalaszos_T3
+ cp /home/horvathandras/vatic/vatic/videos/DJI_0006_valtok_homokmegy_20180518_napos_kalaszos_T3/0/0/31.jpg /home/horvathandras/vatic/vatic/public/videothumbnails/DJI_0006_valtok_homokmegy_20180518_napos_kalaszos_T3/thumb.jpg
